HIERARCHY
ROOT reference
{
  OFFSET 0 0 0
  CHANNELS 6 Xposition Yposition Zposition Zrotation Xrotation Yrotation
  JOINT Hips
  {
    OFFSET 356.501 91.4882 232.072
    CHANNELS 3 Zrotation Xrotation Yrotation
    JOINT RightUpLeg
    {
      OFFSET -9.22368 -1.56954 0.0182318
      CHANNELS 3 Zrotation Xrotation Yrotation
      JOINT RightLeg
      {
        OFFSET 0.0168043 -41.8502 0.039304
        CHANNELS 3 Zrotation Xrotation Yrotation
        JOINT RightFoot
        {
          OFFSET -1.24655 -41.4872 1.84727
          CHANNELS 3 Zrotation Xrotation Yrotation
          End Site
          {
            OFFSET 0 -7.69 17.5
          }
        }
      }
    }
    JOINT LeftUpLeg
    {
      OFFSET 9.32755 -1.5915 0.117934
      CHANNELS 3 Zrotation Xrotation Yrotation
      JOINT LeftLeg
      {
        OFFSET 0.115891 -41.8441 0.138627
        CHANNELS 3 Zrotation Xrotation Yrotation
        JOINT LeftFoot
        {
          OFFSET -0.00258131 -42.0603 -2.16995
          CHANNELS 3 Zrotation Xrotation Yrotation
          End Site
          {
            OFFSET 0 -7.69 17.5
          }
        }
      }
    }
    JOINT Spine
    {
      OFFSET 0.0618908 14.3142 0.263402
      CHANNELS 3 Zrotation Xrotation Yrotation
      JOINT Spine1
      {
        OFFSET 0.00953893 9.71784 0.0772804
        CHANNELS 3 Zrotation Xrotation Yrotation
        JOINT Spine2
        {
          OFFSET 0.0659978 10.1164 -0.109334
          CHANNELS 3 Zrotation Xrotation Yrotation
          JOINT Spine3
          {
            OFFSET 0.00354353 9.7233 0.0181573
            CHANNELS 3 Zrotation Xrotation Yrotation
            JOINT Neck
            {
              OFFSET -0.106539 10.3631 0.143191
              CHANNELS 3 Zrotation Xrotation Yrotation
              JOINT Head
              {
                OFFSET 0.0687213 9.49492 0.178169
                CHANNELS 3 Zrotation Xrotation Yrotation
                End Site
                {
                  OFFSET 0 15.95 0
                }
              }
            }
            JOINT RightShoulder
            {
              OFFSET -3.17341 6.93407 0.0508814
              CHANNELS 3 Zrotation Xrotation Yrotation
              JOINT RightArm
              {
                OFFSET -12.8122 0.02699 0.0058978
                CHANNELS 3 Zrotation Xrotation Yrotation
                JOINT RightForeArm
                {
                  OFFSET -26.4689 -0.0132424 0.0432591
                  CHANNELS 3 Zrotation Xrotation Yrotation
                  JOINT RightHand
                  {
                    OFFSET -25.9762 -0.0747187 0.0544432
                    CHANNELS 3 Zrotation Xrotation Yrotation
                    JOINT RightHandThumb1
                    {
                      OFFSET -2.48905 0.190105 3.12053
                      CHANNELS 3 Zrotation Xrotation Yrotation
                      JOINT RightHandThumb2
                      {
                        OFFSET -3.68274 0 0
                        CHANNELS 3 Zrotation Xrotation Yrotation
                        JOINT RightHandThumb3
                        {
                          OFFSET -2.55832 0 0
                          CHANNELS 3 Zrotation Xrotation Yrotation
                          End Site
                          {
                            OFFSET -2.194 0 0
                          }
                        }
                      }
                    }
                    JOINT RightInHandIndex
                    {
                      OFFSET -3.22368 0.508421 1.97842
                      CHANNELS 3 Zrotation Xrotation Yrotation
                      JOINT RightHandIndex1
                      {
                        OFFSET -5.21684 -0.091368 0.999158
                        CHANNELS 3 Zrotation Xrotation Yrotation
                        JOINT RightHandIndex2
                        {
                          OFFSET -3.61937 0 0
                          CHANNELS 3 Zrotation Xrotation Yrotation
                          JOINT RightHandIndex3
                          {
                            OFFSET -2.0521 0 0
                            CHANNELS 3 Zrotation Xrotation Yrotation
                            End Site
                            {
                              OFFSET -1.805 0 0
                            }
                          }
                        }
                      }
                    }
                    JOINT RightInHandMiddle
                    {
                      OFFSET -3.38211 0.517263 0.756737
                      CHANNELS 3 Zrotation Xrotation Yrotation
                      JOINT RightHandMiddle1
                      {
                        OFFSET -5.17411 -0.084 0.313895
                        CHANNELS 3 Zrotation Xrotation Yrotation
                        JOINT RightHandMiddle2
                        {
                          OFFSET -3.94947 0 0
                          CHANNELS 3 Zrotation Xrotation Yrotation
                          JOINT RightHandMiddle3
                          {
                            OFFSET -2.47579 0 0
                            CHANNELS 3 Zrotation Xrotation Yrotation
                            End Site
                            {
                              OFFSET -1.975 0 0
                            }
                          }
                        }
                      }
                    }
                    JOINT RightInHandRing
                    {
                      OFFSET -3.36516 0.537895 -0.128947
                      CHANNELS 3 Zrotation Xrotation Yrotation
                      JOINT RightHandRing1
                      {
                        OFFSET -4.63474 -0.022105 -0.478947
                        CHANNELS 3 Zrotation Xrotation Yrotation
                        JOINT RightHandRing2
                        {
                          OFFSET -3.44238 0 0
                          CHANNELS 3 Zrotation Xrotation Yrotation
                          JOINT RightHandRing3
                          {
                            OFFSET -2.3881 0 0
                            CHANNELS 3 Zrotation Xrotation Yrotation
                            End Site
                            {
                              OFFSET -1.857 0 0
                            }
                          }
                        }
                      }
                    }
                    JOINT RightInHandPinky
                    {
                      OFFSET -3.16105 0.469368 -1.20179
                      CHANNELS 3 Zrotation Xrotation Yrotation
                      JOINT RightHandPinky1
                      {
                        OFFSET -4.14105 -0.022105 -1.09053
                        CHANNELS 3 Zrotation Xrotation Yrotation
                        JOINT RightHandPinky2
                        {
                          OFFSET -2.75653 0 0
                          CHANNELS 3 Zrotation Xrotation Yrotation
                          JOINT RightHandPinky3
                          {
                            OFFSET -1.74189 0 0
                            CHANNELS 3 Zrotation Xrotation Yrotation
                            End Site
                            {
                              OFFSET -1.645 0 0
                            }
                          }
                        }
                      }
                    }
                  }
                }
              }
            }
            JOINT LeftShoulder
            {
              OFFSET 3.13763 6.93537 0.265461
              CHANNELS 3 Zrotation Xrotation Yrotation
              JOINT LeftArm
              {
                OFFSET 12.4516 -0.0856895 0.350644
                CHANNELS 3 Zrotation Xrotation Yrotation
                JOINT LeftForeArm
                {
                  OFFSET 26.6962 -0.139113 0.0812581
                  CHANNELS 3 Zrotation Xrotation Yrotation
                  JOINT LeftHand
                  {
                    OFFSET 25.9561 0.0264111 -0.243705
                    CHANNELS 3 Zrotation Xrotation Yrotation
                    JOINT LeftHandThumb1
                    {
                      OFFSET 2.48905 0.190105 3.12053
                      CHANNELS 3 Zrotation Xrotation Yrotation
                      JOINT LeftHandThumb2
                      {
                        OFFSET 3.68274 0 0
                        CHANNELS 3 Zrotation Xrotation Yrotation
                        JOINT LeftHandThumb3
                        {
                          OFFSET 2.55832 0 0
                          CHANNELS 3 Zrotation Xrotation Yrotation
                          End Site
                          {
                            OFFSET 2.194 0 0
                          }
                        }
                      }
                    }
                    JOINT LeftInHandIndex
                    {
                      OFFSET 3.22368 0.508421 1.97842
                      CHANNELS 3 Zrotation Xrotation Yrotation
                      JOINT LeftHandIndex1
                      {
                        OFFSET 5.21684 -0.091368 0.999158
                        CHANNELS 3 Zrotation Xrotation Yrotation
                        JOINT LeftHandIndex2
                        {
                          OFFSET 3.61937 0 0
                          CHANNELS 3 Zrotation Xrotation Yrotation
                          JOINT LeftHandIndex3
                          {
                            OFFSET 2.0521 0 0
                            CHANNELS 3 Zrotation Xrotation Yrotation
                            End Site
                            {
                              OFFSET 1.805 0 0
                            }
                          }
                        }
                      }
                    }
                    JOINT LeftInHandMiddle
                    {
                      OFFSET 3.38211 0.517263 0.756737
                      CHANNELS 3 Zrotation Xrotation Yrotation
                      JOINT LeftHandMiddle1
                      {
                        OFFSET 5.17411 -0.084 0.313895
                        CHANNELS 3 Zrotation Xrotation Yrotation
                        JOINT LeftHandMiddle2
                        {
                          OFFSET 3.94947 0 0
                          CHANNELS 3 Zrotation Xrotation Yrotation
                          JOINT LeftHandMiddle3
                          {
                            OFFSET 2.47579 0 0
                            CHANNELS 3 Zrotation Xrotation Yrotation
                            End Site
                            {
                              OFFSET 1.975 0 0
                            }
                          }
                        }
                      }
                    }
                    JOINT LeftInHandRing
                    {
                      OFFSET 3.36516 0.537895 -0.128947
                      CHANNELS 3 Zrotation Xrotation Yrotation
                      JOINT LeftHandRing1
                      {
                        OFFSET 4.63474 -0.022105 -0.478947
                        CHANNELS 3 Zrotation Xrotation Yrotation
                        JOINT LeftHandRing2
                        {
                          OFFSET 3.44238 0 0
                          CHANNELS 3 Zrotation Xrotation Yrotation
                          JOINT LeftHandRing3
                          {
                            OFFSET 2.3881 0 0
                            CHANNELS 3 Zrotation Xrotation Yrotation
                            End Site
                            {
                              OFFSET 1.857 0 0
                            }
                          }
                        }
                      }
                    }
                    JOINT LeftInHandPinky
                    {
                      OFFSET 3.16105 0.469368 -1.20179
                      CHANNELS 3 Zrotation Xrotation Yrotation
                      JOINT LeftHandPinky1
                      {
                        OFFSET 4.14105 -0.022105 -1.09053
                        CHANNELS 3 Zrotation Xrotation Yrotation
                        JOINT LeftHandPinky2
                        {
                          OFFSET 2.75653 0 0
                          CHANNELS 3 Zrotation Xrotation Yrotation
                          JOINT LeftHandPinky3
                          {
                            OFFSET 1.74189 0 0
                            CHANNELS 3 Zrotation Xrotation Yrotation
                            End Site
                            {
                              OFFSET 1.645 0 0
                            }
                          }
                        }
                      }
                    }
                  }
                }
              }
            }
          }
        }
      }
    }
  }
}
MOTION
Frames: 2
Frame Time: 0.00833333
7.500000000000000000e+02 0.000000000000000000e+00 0.000000000000000000e+00 0.000000000000000000e+00 0.000000000000000000e+00 0.000000000000000000e+00 9.427273272645501079e-01 -7.503627168886725096e-01 -1.041902323545023989e+01 6.539652610700769308e+00 2.185607915522294498e+00 4.317970503288290018e+00 -9.981811142195808895e-01 -2.077152168905781471e-01 1.825588176933072182e+00 -6.018349311985187189e-01 -4.506504211255065173e-01 4.960589057795965040e+00 2.847050761685671283e+00 4.324526534978371473e+00 1.331282115445312497e+00 -3.140892709897827650e+00 6.290289234012548247e-01 1.725459943594537915e+00 3.495798900101646289e+00 -4.738810193861444642e-01 8.568283600160294000e+00 -9.914458558378722586e-01 -3.153223010847896468e+00 -4.586504879752799191e+00 -2.487100494121364525e-01 -8.243497697855676209e-01 -1.106364919376636946e+00 -4.062878940415367013e-01 -1.360224892860780077e+00 -1.785066718343929493e+00 3.314906626292617176e-02 -6.608051429219366502e-02 4.934495576023457675e-01 3.438404223272180094e-01 -1.821285392405843639e+00 1.130997021803561964e+01 6.619811110549440603e-01 2.560279590771573854e+00 2.557997250716764093e+00 5.142672648619191211e-02 2.037364191625660181e-01 -3.055149777773677577e+00 -1.260185702175146005e+01 -9.095839154562506579e+00 -9.723185500123298297e+00 -1.010962280688512571e+01 2.522447142369018014e+00 8.401046198640893081e+00 -1.674851389517752809e+00 4.930197023915574572e-01 3.272502120047176888e+00 0.000000000000000000e+00 0.000000000000000000e+00 0.000000000000000000e+00 2.247877297417808827e-15 9.358023362207428395e-16 0.000000000000000000e+00 -1.233014342894136503e-15 -1.163800080732660959e-15 0.000000000000000000e+00 -2.182518684913927439e-15 5.249088182465579432e-16 -1.873763764104743860e-15 0.000000000000000000e+00 0.000000000000000000e+00 0.000000000000000000e+00 0.000000000000000000e+00 -1.177471623748586889e-16 -3.971365332052702588e-16 0.000000000000000000e+00 8.179290869597031777e-16 5.220262276437166255e-15 -2.182518684913927439e-15 5.249088182465579432e-16 -1.873763764104743860e-15 0.000000000000000000e+00 -2.423486754123744404e-15 -1.079643775688179217e-15 0.000000000000000000e+00 -4.264792598917769268e-16 5.408316512235261758e-16 0.000000000000000000e+00 6.445407239453589233e-16 3.176164542485031654e-15 -2.182518684913927439e-15 5.249088182465579432e-16 -1.873763764104743860e-15 0.000000000000000000e+00 0.000000000000000000e+00 0.000000000000000000e+00 0.000000000000000000e+00 1.197761357784051964e-15 -3.320372735353328684e-15 0.000000000000000000e+00 2.086013797545678848e-15 4.942840008529682062e-15 -2.182518684913927439e-15 5.249088182465579432e-16 -1.873763764104743860e-15 0.000000000000000000e+00 0.000000000000000000e+00 0.000000000000000000e+00 0.000000000000000000e+00 -6.886739907462290652e-16 1.571652637499761495e-15 0.000000000000000000e+00 -9.863036633514011365e-17 -8.366322500086079889e-16 -1.987608876545733594e+00 -2.622891570044697307e+00 -2.968546405061206706e+00 5.865410533918049119e+00 -2.772593064348898295e+00 -7.215816577621413153e+00 1.249852579331595592e+01 2.592290779311063886e+00 9.866945721220075072e-01 -1.251707331290330849e+00 1.300846204615411672e+00 -5.270394156574400135e+00 0.000000000000000000e+00 0.000000000000000000e+00 0.000000000000000000e+00 -5.854451261367628503e-15 -1.138101199203157672e-15 0.000000000000000000e+00 -3.344844741131556745e-15 1.820720411465325063e-16 0.000000000000000000e+00 -1.430587771269123218e-15 -1.561787884572085822e-15 -1.202831389693241980e-15 0.000000000000000000e+00 0.000000000000000000e+00 0.000000000000000000e+00 0.000000000000000000e+00 1.145005326852569327e-15 -3.077338680440320728e-15 0.000000000000000000e+00 1.095565574572097173e-15 -1.065606122941895505e-15 -1.430587771269123218e-15 -1.561787884572085822e-15 -1.202831389693241980e-15 0.000000000000000000e+00 1.250264218045329147e-16 -3.591413000392965310e-16 0.000000000000000000e+00 1.021826247856217208e-15 -6.078845934224957280e-15 0.000000000000000000e+00 -8.491202383629951315e-16 -2.973198554361130877e-15 -1.430587771269123218e-15 -1.561787884572085822e-15 -1.202831389693241980e-15 0.000000000000000000e+00 0.000000000000000000e+00 0.000000000000000000e+00 0.000000000000000000e+00 7.395262039143967408e-16 -4.875022651713086002e-15 0.000000000000000000e+00 1.218881197463156231e-15 -9.374113622427679724e-16 -1.430587771269123218e-15 -1.561787884572085822e-15 -1.202831389693241980e-15 0.000000000000000000e+00 0.000000000000000000e+00 0.000000000000000000e+00 0.000000000000000000e+00 1.204824644038280219e-15 2.455778991883426390e-17 0.000000000000000000e+00 1.128381448130214412e-16 1.874114708873849720e-15
7.500000000000000000e+02 0.000000000000000000e+00 0.000000000000000000e+00 0.000000000000000000e+00 0.000000000000000000e+00 0.000000000000000000e+00 1.006695882276517517e+00 -7.141739328455178892e-01 -1.073515410757722854e+01 6.623728126805477068e+00 2.069561662462743534e+00 4.283279075748256837e+00 -1.013304254134680837e+00 -1.640493506292108050e-01 1.881231977295215074e+00 -5.782847069280780961e-01 -5.109435707572015373e-01 5.087095320691771505e+00 2.971264844561203766e+00 4.273821776566745001e+00 1.367376013707399363e+00 -3.180739366436286186e+00 7.276219517484970867e-01 1.794824693013755468e+00 3.594617594547681261e+00 -4.354389862519326138e-01 8.810299226098878833e+00 -1.021065895369301701e+00 -3.201214462225121959e+00 -4.722062622488246930e+00 -2.554918382492734064e-01 -8.366438919193401880e-01 -1.140161031885835952e+00 -4.171766768411565574e-01 -1.380544807576079114e+00 -1.837672517333829525e+00 3.370836044922125713e-02 -6.212430355251150060e-02 5.025184193238684260e-01 3.584752809527189110e-01 -1.830595460290781240e+00 1.162731228642089576e+01 6.644076106142419169e-01 2.660838252564036832e+00 2.522620571508423115e+00 6.967657733491974814e-02 2.295709821186733834e-01 -3.160335131337926207e+00 -1.275623038806277876e+01 -9.144967673598198843e+00 -1.021533123947160959e+01 -1.014615373149116451e+01 2.312745101281961979e+00 8.904833164830856518e+00 -1.819098236110876066e+00 5.237785372061246614e-01 3.395229148640269923e+00 0.000000000000000000e+00 0.000000000000000000e+00 0.000000000000000000e+00 2.287957294692971688e-15 8.896187643849011643e-16 0.000000000000000000e+00 -1.238764224280291101e-15 -1.115526814354967357e-15 0.000000000000000000e+00 -2.167876858337164249e-15 5.753374500695458418e-16 -1.891441297246710162e-15 0.000000000000000000e+00 0.000000000000000000e+00 0.000000000000000000e+00 0.000000000000000000e+00 -1.395822368435965406e-16 -3.960651828827515881e-16 0.000000000000000000e+00 7.539457563276620042e-16 5.058307288278579725e-15 -2.167876858337164249e-15 5.753374500695458418e-16 -1.891441297246710162e-15 0.000000000000000000e+00 -2.460981868637649902e-15 -1.204567879104359430e-15 0.000000000000000000e+00 -3.845739703914168860e-16 4.492008576411595846e-16 0.000000000000000000e+00 6.792641487625436377e-16 2.971694144406405065e-15 -2.167876858337164249e-15 5.753374500695458418e-16 -1.891441297246710162e-15 0.000000000000000000e+00 0.000000000000000000e+00 0.000000000000000000e+00 0.000000000000000000e+00 1.156976335379185505e-15 -3.384586850007323208e-15 0.000000000000000000e+00 2.124924319972948220e-15 4.957902532510474000e-15 -2.167876858337164249e-15 5.753374500695458418e-16 -1.891441297246710162e-15 0.000000000000000000e+00 0.000000000000000000e+00 0.000000000000000000e+00 0.000000000000000000e+00 -6.911704539281053320e-16 1.460501929122446097e-15 0.000000000000000000e+00 -1.116726972642701740e-16 -8.857222231992418866e-16 -1.964882275085884311e+00 -2.642143028398869831e+00 -3.048366242041960383e+00 6.028954599866365172e+00 -2.815217111885550239e+00 -7.278091426850233248e+00 1.304231979620255011e+01 2.722888303524976461e+00 1.502345740462621482e+00 -1.260721665104517220e+00 1.326298328667710802e+00 -5.318168918179233096e+00 0.000000000000000000e+00 0.000000000000000000e+00 0.000000000000000000e+00 -5.834021269281566086e-15 -1.107908906540674034e-15 0.000000000000000000e+00 -3.390137345437264797e-15 2.438349119071348043e-16 0.000000000000000000e+00 -1.476229492282950859e-15 -1.595742291612565948e-15 -1.282971655536462608e-15 0.000000000000000000e+00 0.000000000000000000e+00 0.000000000000000000e+00 0.000000000000000000e+00 1.188174349560014155e-15 -3.097786836291707640e-15 0.000000000000000000e+00 1.144379997477982962e-15 -1.194767224185301527e-15 -1.476229492282950859e-15 -1.595742291612565948e-15 -1.282971655536462608e-15 0.000000000000000000e+00 6.547116501149024636e-17 -3.557701201527869635e-16 0.000000000000000000e+00 9.729365344712263593e-16 -6.173867909248065533e-15 0.000000000000000000e+00 -7.699644326275844293e-16 -3.108442129988185714e-15 -1.476229492282950859e-15 -1.595742291612565948e-15 -1.282971655536462608e-15 0.000000000000000000e+00 0.000000000000000000e+00 0.000000000000000000e+00 0.000000000000000000e+00 6.739966847527346179e-16 -4.887049163585587144e-15 0.000000000000000000e+00 1.173082529398709176e-15 -1.002320603936100743e-15 -1.476229492282950859e-15 -1.595742291612565948e-15 -1.282971655536462608e-15 0.000000000000000000e+00 0.000000000000000000e+00 0.000000000000000000e+00 0.000000000000000000e+00 1.171830116099602417e-15 6.209180808701423626e-17 0.000000000000000000e+00 4.164005375855960907e-17 1.918619405109178855e-15
